{
  "accessors": [
    {
      "bufferView": 2,
      "componentType": 5126,
      "count": 38540,
      "max": [
        75.25343322753906,
        41.66836929321289,
        40.434059143066406
      ],
      "min": [
        -93.21566772460938,
        -74.48111724853516,
        -17.68490982055664
      ],
      "type": "VEC3"
    },
    {
      "bufferView": 2,
      "byteOffset": 462480,
      "componentType": 5126,
      "count": 38540,
      "max": [
        1.0,
        1.0,
        1.0
      ],
      "min": [
        -1.0,
        -1.0,
        -1.0
      ],
      "type": "VEC3"
    },
    {
      "bufferView": 1,
      "componentType": 5126,
      "count": 38540,
      "max": [
        0.9989737272262573,
        0.9986149072647095
      ],
      "min": [
        0.0010203709825873375,
        0.0010189410531893373
      ],
      "type": "VEC2"
    },
    {
      "bufferView": 0,
      "componentType": 5125,
      "count": 118314,
      "type": "SCALAR"
    },
    {
      "bufferView": 2,
      "byteOffset": 924960,
      "componentType": 5126,
      "count": 250,
      "max": [
        134.9355926513672,
        28.106250762939453,
        53.16436004638672
      ],
      "min": [
        3.242340087890625,
        -53.447120666503906,
        49.65953826904297
      ],
      "type": "VEC3"
    },
    {
      "bufferView": 2,
      "byteOffset": 927960,
      "componentType": 5126,
      "count": 250,
      "max": [
        0.00021574999846052378,
        0.0,
        -1.0
      ],
      "min": [
        -0.00018408500181976706,
        0.0,
        -1.0
      ],
      "type": "VEC3"
    },
    {
      "bufferView": 1,
      "byteOffset": 308320,
      "componentType": 5126,
      "count": 250,
      "max": [
        0.7500001788139343,
        0.3952096998691559
      ],
      "min": [
        0.1062690019607544,
        0.10479039698839188
      ],
      "type": "VEC2"
    },
    {
      "bufferView": 0,
      "byteOffset": 473256,
      "componentType": 5125,
      "count": 612,
      "type": "SCALAR"
    },
    {
      "bufferView": 2,
      "byteOffset": 930960,
      "componentType": 5126,
      "count": 4,
      "max": [
        75.33094024658203,
        39.456451416015625,
        40.31557846069336
      ],
      "min": [
        -88.79995727539063,
        -74.54354858398438,
        40.31557846069336
      ],
      "type": "VEC3"
    },
    {
      "bufferView": 2,
      "byteOffset": 931008,
      "componentType": 5126,
      "count": 4,
      "max": [
        0.0,
        0.0,
        -1.0
      ],
      "min": [
        0.0,
        0.0,
        -1.0
      ],
      "type": "VEC3"
    },
    {
      "bufferView": 1,
      "byteOffset": 310320,
      "componentType": 5126,
      "count": 4,
      "max": [
        0.12714159488677979,
        0.3126468062400818
      ],
      "min": [
        0.02373622916638851,
        0.24083159863948822
      ],
      "type": "VEC2"
    },
    {
      "bufferView": 0,
      "byteOffset": 475704,
      "componentType": 5125,
      "count": 6,
      "type": "SCALAR"
    },
    {
      "bufferView": 2,
      "byteOffset": 931056,
      "componentType": 5126,
      "count": 102,
      "max": [
        141.7364044189453,
        39.348358154296875,
        53.44900894165039
      ],
      "min": [
        -3.0858840942382813,
        35.65058135986328,
        2.740431070327759
      ],
      "type": "VEC3"
    },
    {
      "bufferView": 2,
      "byteOffset": 932280,
      "componentType": 5126,
      "count": 102,
      "max": [
        1.0,
        0.0,
        1.0
      ],
      "min": [
        -1.0,
        -1.0,
        -1.0
      ],
      "type": "VEC3"
    },
    {
      "bufferView": 1,
      "byteOffset": 310352,
      "componentType": 5126,
      "count": 102,
      "max": [
        1.4842009544372559,
        0.7452067136764526
      ],
      "min": [
        0.002667725086212158,
        0.15744100511074066
      ],
      "type": "VEC2"
    },
    {
      "bufferView": 0,
      "byteOffset": 475728,
      "componentType": 5125,
      "count": 222,
      "type": "SCALAR"
    },
    {
      "bufferView": 2,
      "byteOffset": 933504,
      "componentType": 5126,
      "count": 8,
      "max": [
        -20.643909454345703,
        12.280779838562012,
        51.9777717590332
      ],
      "min": [
        -20.643909454345703,
        -67.93543243408203,
        3.317328929901123
      ],
      "type": "VEC3"
    },
    {
      "bufferView": 2,
      "byteOffset": 933600,
      "componentType": 5126,
      "count": 8,
      "max": [
        1.0,
        0.0,
        0.0
      ],
      "min": [
        1.0,
        0.0,
        0.0
      ],
      "type": "VEC3"
    },
    {
      "bufferView": 1,
      "byteOffset": 311168,
      "componentType": 5126,
      "count": 8,
      "max": [
        1.0007760524749756,
        0.9627410173416138
      ],
      "min": [
        0.0022649760358035564,
        0.3109056055545807
      ],
      "type": "VEC2"
    },
    {
      "bufferView": 0,
      "byteOffset": 476616,
      "componentType": 5125,
      "count": 12,
      "type": "SCALAR"
    },
    {
      "bufferView": 2,
      "byteOffset": 933696,
      "componentType": 5126,
      "count": 4,
      "max": [
        4.189651012420654,
        1.8484530448913574,
        2.9857559204101563
      ],
      "min": [
        -4.189667224884033,
        -1.8484530448913574,
        -2.9857559204101563
      ],
      "type": "VEC3"
    },
    {
      "bufferView": 2,
      "byteOffset": 933744,
      "componentType": 5126,
      "count": 4,
      "max": [
        0.40365371108055115,
        0.9149119257926941,
        0.0
      ],
      "min": [
        0.4036535918712616,
        0.9149119257926941,
        0.0
      ],
      "type": "VEC3"
    },
    {
      "bufferView": 1,
      "byteOffset": 311232,
      "componentType": 5126,
      "count": 4,
      "max": [
        0.9896829724311829,
        0.9793835878372192
      ],
      "min": [
        0.010316899977624416,
        0.020616350695490837
      ],
      "type": "VEC2"
    },
    {
      "bufferView": 0,
      "byteOffset": 476664,
      "componentType": 5125,
      "count": 6,
      "type": "SCALAR"
    },
    {
      "bufferView": 2,
      "byteOffset": 933792,
      "componentType": 5126,
      "count": 42,
      "max": [
        88.2782211303711,
        117.0,
        0.0
      ],
      "min": [
        -84.9925308227539,
        0.0,
        -63.0
      ],
      "type": "VEC3"
    },
    {
      "bufferView": 2,
      "byteOffset": 934296,
      "componentType": 5126,
      "count": 42,
      "max": [
        0.7071068286895752,
        1.0,
        1.0
      ],
      "min": [
        -0.7071068286895752,
        -1.0,
        -1.0
      ],
      "type": "VEC3"
    },
    {
      "bufferView": 1,
      "byteOffset": 311264,
      "componentType": 5126,
      "count": 42,
      "max": [
        0.16219070553779602,
        0.24339109659194946
      ],
      "min": [
        0.16219070553779602,
        0.0010204310528934002
      ],
      "type": "VEC2"
    },
    {
      "bufferView": 0,
      "byteOffset": 476688,
      "componentType": 5125,
      "count": 144,
      "type": "SCALAR"
    }
  ],
  "asset": {
    "extras": {
      "author": "RaynaudL (https://sketchfab.com/fts_ltx)",
      "license": "CC-BY-NC-4.0 (http://creativecommons.org/licenses/by-nc/4.0/)",
      "source": "https://sketchfab.com/3d-models/modern-office-reception-baking-a09ce3c3462c46a8865c9a32e01d571c",
      "title": "Modern Office Reception Baking"
    },
    "generator": "Sketchfab-14.23.0",
    "version": "2.0"
  },
  "bufferViews": [
    {
      "buffer": 0,
      "byteLength": 477264,
      "name": "floatBufferViews",
      "target": 34963
    },
    {
      "buffer": 0,
      "byteLength": 311600,
      "byteOffset": 477264,
      "byteStride": 8,
      "name": "floatBufferViews",
      "target": 34962
    },
    {
      "buffer": 0,
      "byteLength": 934800,
      "byteOffset": 788864,
      "byteStride": 12,
      "name": "floatBufferViews",
      "target": 34962
    }
  ],
  "buffers": [
    {
      "byteLength": 1723664,
      "uri": "scene.bin"
    }
  ],
  "extensionsUsed": [
    "KHR_materials_unlit"
  ],
  "images": [
    {
      "uri": "textures/material_0_baseColor.jpeg"
    },
    {
      "uri": "textures/exterior_baseColor.jpeg"
    },
    {
      "uri": "textures/office_combined_baseColor.jpeg"
    }
  ],
  "materials": [
    {
      "doubleSided": true,
      "extensions": {
        "KHR_materials_unlit": {}
      },
      "name": "material_0",
      "pbrMetallicRoughness": {
        "baseColorFactor": [
          0.26917773286235097,
          0.26917773286235097,
          0.26917773286235097,
          1.0
        ],
        "baseColorTexture": {
          "index": 0
        },
        "metallicFactor": 0.0
      }
    },
    {
      "doubleSided": true,
      "extensions": {
        "KHR_materials_unlit": {}
      },
      "name": "black",
      "pbrMetallicRoughness": {
        "baseColorFactor": [
          0.0,
          0.0,
          0.0,
          1.0
        ],
        "metallicFactor": 0.0
      }
    },
    {
      "doubleSided": true,
      "emissiveFactor": [
        0.22441099464902073,
        0.029650517222851454,
        0.0
      ],
      "extensions": {
        "KHR_materials_unlit": {}
      },
      "name": "monitor",
      "pbrMetallicRoughness": {
        "baseColorTexture": {
          "index": 0
        },
        "metallicFactor": 0.0
      }
    },
    {
      "doubleSided": true,
      "emissiveFactor": [
        0.5509485760340518,
        0.5509485760340518,
        0.5509485760340518
      ],
      "emissiveTexture": {
        "index": 1
      },
      "extensions": {
        "KHR_materials_unlit": {}
      },
      "name": "exterior",
      "pbrMetallicRoughness": {
        "baseColorTexture": {
          "index": 1
        },
        "metallicFactor": 0.0
      }
    },
    {
      "doubleSided": true,
      "emissiveFactor": [
        1.0,
        0.3709710925778372,
        0.0
      ],
      "extensions": {
        "KHR_materials_unlit": {}
      },
      "name": "orange",
      "pbrMetallicRoughness": {
        "baseColorFactor": [
          1.0,
          0.015876293507004095,
          0.0,
          1.0
        ],
        "metallicFactor": 0.0
      }
    },
    {
      "doubleSided": true,
      "emissiveFactor": [
        1.0,
        1.0,
        1.0
      ],
      "extensions": {
        "KHR_materials_unlit": {}
      },
      "name": "light",
      "pbrMetallicRoughness": {
        "baseColorFactor": [
          0.8,
          0.8,
          0.8,
          1.0
        ],
        "metallicFactor": 0.0
      }
    },
    {
      "extensions": {
        "KHR_materials_unlit": {}
      },
      "name": "office_combined",
      "pbrMetallicRoughness": {
        "baseColorTexture": {
          "index": 2
        },
        "metallicFactor": 0.0
      }
    }
  ],
  "meshes": [
    {
      "name": "office_combined-material",
      "primitives": [
        {
          "attributes": {
            "NORMAL": 1,
            "POSITION": 0,
            "TEXCOORD_0": 2
          },
          "indices": 3,
          "material": 6,
          "mode": 4
        }
      ]
    },
    {
      "name": "light-material",
      "primitives": [
        {
          "attributes": {
            "NORMAL": 5,
            "POSITION": 4,
            "TEXCOORD_0": 6
          },
          "indices": 7,
          "material": 5,
          "mode": 4
        }
      ]
    },
    {
      "name": "Object_2",
      "primitives": [
        {
          "attributes": {
            "NORMAL": 9,
            "POSITION": 8,
            "TEXCOORD_0": 10
          },
          "indices": 11,
          "material": 0,
          "mode": 4
        }
      ]
    },
    {
      "name": "orange-material",
      "primitives": [
        {
          "attributes": {
            "NORMAL": 13,
            "POSITION": 12,
            "TEXCOORD_0": 14
          },
          "indices": 15,
          "material": 4,
          "mode": 4
        }
      ]
    },
    {
      "name": "exterior-material",
      "primitives": [
        {
          "attributes": {
            "NORMAL": 17,
            "POSITION": 16,
            "TEXCOORD_0": 18
          },
          "indices": 19,
          "material": 3,
          "mode": 4
        }
      ]
    },
    {
      "name": "monitor-material",
      "primitives": [
        {
          "attributes": {
            "NORMAL": 21,
            "POSITION": 20,
            "TEXCOORD_0": 22
          },
          "indices": 23,
          "material": 2,
          "mode": 4
        }
      ]
    },
    {
      "name": "black-material",
      "primitives": [
        {
          "attributes": {
            "NORMAL": 25,
            "POSITION": 24,
            "TEXCOORD_0": 26
          },
          "indices": 27,
          "material": 1,
          "mode": 4
        }
      ]
    }
  ],
  "nodes": [
    {
      "children": [
        1
      ],
      "matrix": [
        0.054644808173179626,
        0.0,
        0.0,
        0.0,
        0.0,
        1.2133584842017792e-17,
        -0.054644808173179626,
        0.0,
        0.0,
        0.054644808173179626,
        1.2133584842017792e-17,
        0.0,
        0.0,
        0.0,
        0.0,
        1.0
      ],
      "name": "Sketchfab_model"
    },
    {
      "children": [
        2,
        4,
        6,
        8,
        10,
        12,
        14
      ],
      "name": "Collada visual scene group"
    },
    {
      "children": [
        3
      ],
      "matrix": [
        1.0,
        0.0,
        0.0,
        0.0,
        0.0,
        1.0,
        0.0,
        0.0,
        0.0,
        0.0,
        1.0,
        0.0,
        -53.65341,
        14.4811,
        15.69986,
        1.0
      ],
      "name": "office_lp"
    },
    {
      "mesh": 0,
      "name": "office_combined-material"
    },
    {
      "children": [
        5
      ],
      "matrix": [
        1.0,
        0.0,
        0.0,
        0.0,
        0.0,
        1.0,
        0.0,
        0.0,
        0.0,
        0.0,
        1.0,
        0.0,
        -125.9654,
        16.0,
        0.0,
        1.0
      ],
      "name": "light"
    },
    {
      "mesh": 1,
      "name": "light-material"
    },
    {
      "children": [
        7
      ],
      "matrix": [
        1.0,
        0.0,
        0.0,
        0.0,
        0.0,
        1.0,
        0.0,
        0.0,
        0.0,
        0.0,
        1.0,
        0.0,
        -53.73093,
        14.54355,
        15.68441,
        1.0
      ],
      "name": "plafond"
    },
    {
      "mesh": 2,
      "name": "Object_7"
    },
    {
      "children": [
        9
      ],
      "matrix": [
        1.0,
        0.0,
        0.0,
        0.0,
        0.0,
        1.0,
        0.0,
        0.0,
        0.0,
        0.0,
        1.0,
        0.0,
        -125.9654,
        16.0,
        0.0,
        1.0
      ],
      "name": "orange"
    },
    {
      "mesh": 3,
      "name": "orange-material"
    },
    {
      "children": [
        11
      ],
      "matrix": [
        1.0,
        0.0,
        0.0,
        0.0,
        0.0,
        1.0,
        0.0,
        0.0,
        0.0,
        0.0,
        1.0,
        0.0,
        -125.9654,
        16.0,
        0.0,
        1.0
      ],
      "name": "exterior"
    },
    {
      "mesh": 4,
      "name": "exterior-material"
    },
    {
      "children": [
        13
      ],
      "matrix": [
        1.0,
        0.0,
        0.0,
        0.0,
        0.0,
        1.0,
        0.0,
        0.0,
        0.0,
        0.0,
        1.0,
        0.0,
        -26.51142,
        3.268288,
        18.32041,
        1.0
      ],
      "name": "monitor"
    },
    {
      "mesh": 5,
      "name": "monitor-material"
    },
    {
      "children": [
        15
      ],
      "matrix": [
        1.0,
        0.0,
        0.0,
        0.0,
        0.0,
        1.0,
        0.0,
        0.0,
        0.0,
        0.0,
        1.0,
        0.0,
        -63.27822,
        -60.0,
        59.0,
        1.0
      ],
      "name": "black"
    },
    {
      "mesh": 6,
      "name": "black-material"
    }
  ],
  "samplers": [
    {
      "magFilter": 9729,
      "minFilter": 9987,
      "wrapS": 10497,
      "wrapT": 10497
    }
  ],
  "scene": 0,
  "scenes": [
    {
      "name": "Sketchfab_Scene",
      "nodes": [
        0
      ]
    }
  ],
  "textures": [
    {
      "sampler": 0,
      "source": 0
    },
    {
      "sampler": 0,
      "source": 1
    },
    {
      "sampler": 0,
      "source": 2
    }
  ]
}
