<?xml version="1.0" encoding="utf-8"?>
<!-- Generator: Adobe Illustrator 26.5.0, SVG Export Plug-In . SVG Version: 6.00 Build 0)  -->
<svg version="1.1" id="Layer_1" xmlns="http://www.w3.org/2000/svg" xmlns:xlink="http://www.w3.org/1999/xlink" x="0px" y="0px"
	 viewBox="0 0 460.7 98.2" style="enable-background:new 0 0 460.7 98.2;" xml:space="preserve">
<style type="text/css">
	.st0{fill:#FFFFFF;}
</style>
<g>
	<path class="st0" d="M76.1,0L62,66.6c-1.7,8.1-4.5,14.6-8.4,19.4C47.1,94,37.7,98.1,25.3,98.1c-12.4,0-20.1-3.3-22.9-9.8
		c-2.9-6.5-3.1-15.4-0.7-26.7l0.5-2.2H21l-0.5,2.2c-1.4,7.4-1.7,12.6-0.9,15.6c0.8,3,3.6,4.5,8.3,4.5c4.7,0,8.2-1.6,10.4-4.9
		c1.3-1.9,2.5-5.2,3.5-9.9L56.1,0H76.1z"/>
	<path class="st0" d="M146.2,33.9c4.4,7.5,5.5,16.3,3.3,26.6c-2.2,10.4-7.1,19.3-14.6,26.7c-7.6,7.4-17.4,11.1-29.6,11.1
		c-12.2,0-20.4-3.7-24.8-11.1c-4.4-7.4-5.5-16.3-3.3-26.7c2.2-10.2,7-19.1,14.6-26.6c7.6-7.5,17.4-11.2,29.6-11.2
		C133.6,22.7,141.9,26.4,146.2,33.9z M118,38.3c-5.4,0-10,1.9-13.7,5.7c-3.7,3.8-6.3,9.3-7.9,16.4c-1.5,7.1-1.2,12.6,0.9,16.4
		c2.1,3.9,5.9,5.8,11.3,5.8c5.4,0,10-1.9,13.7-5.8c3.7-3.9,6.3-9.3,7.9-16.4c1.5-7.1,1.2-12.6-0.9-16.4
		C127.2,40.2,123.4,38.3,118,38.3z"/>
	<path class="st0" d="M182.7,43.4c-0.5,2.1,0.1,3.7,1.8,4.6c1.6,1,7.7,2.7,18.2,5.1c7,1.7,11.9,4.4,14.9,7.9c2.9,3.6,3.8,8,2.7,13.3
		c-1.5,7-5.3,12.7-11.5,17.2c-6.1,4.4-14.7,6.7-25.6,6.7c-11.1,0-18.8-2.3-23.2-7c-4.3-4.7-5.7-10.7-4.2-18h18.8
		c-0.3,3.3,0.1,5.6,1.1,7c1.7,2.5,5.7,3.7,11.9,3.7c3.6,0,6.6-0.5,9-1.6c2.4-1.1,3.8-2.7,4.3-4.9c0.4-2.1-0.1-3.7-1.6-4.7
		c-1.5-1.1-7.6-2.9-18.1-5.6c-7.6-2-12.7-4.5-15.3-7.5c-2.7-2.9-3.4-7.2-2.2-12.7c1.4-6.5,5.1-12.2,11.3-16.9c6.1-4.7,13.8-7,23.2-7
		c8.8,0,15.7,1.8,20.5,5.3c4.8,3.5,6.7,9.6,5.7,18.3h-18.5c0.2-2.4-0.1-4.3-0.8-5.7c-1.5-2.5-4.7-3.8-9.6-3.8c-4,0-7,0.6-9,1.9
		C184.2,40.2,183,41.7,182.7,43.4z"/>
	<path class="st0" d="M275,38.5c-4.9,0-9,1.6-12.2,4.9c-3.2,3.3-5.5,7.9-6.8,14l-8.1,38.3h-18.4l20.3-95.4h18.4l-7.2,33.8
		c3.5-4.1,7.3-7,11.1-8.6c3.9-1.6,7.8-2.4,11.7-2.4c4.4,0,8.2,0.8,11.4,2.3c3.2,1.5,5.7,3.8,7.3,6.9c1.4,2.6,2,5.4,1.9,8.2
		c-0.2,2.8-0.9,7.3-2.2,13.7l-8.8,41.6h-18.9l9.1-43.1c0.8-3.8,0.8-6.9,0.1-9.2C282.5,40.2,279.7,38.5,275,38.5z"/>
	<path class="st0" d="M358,85.7c-0.2,0.2-0.8,0.9-1.7,1.9c-0.9,1.1-1.9,2-3.1,2.9c-3.5,2.6-6.7,4.4-9.6,5.3c-2.9,1-6.2,1.4-9.8,1.4
		c-10.5,0-16.7-3.8-18.8-11.3c-1.1-4.2-0.8-10.3,0.9-18.4l9-42.7h19l-9,42.7c-0.9,4-1,7.1-0.5,9.1c0.9,3.6,3.8,5.4,8.8,5.4
		c6.3,0,11.2-2.6,14.6-7.7c1.8-2.8,3.2-6.4,4.2-11l8.2-38.5h18.8l-15,70.8h-18L358,85.7z"/>
	<path class="st0" d="M428.7,52.7c3.5-0.4,6.1-1,7.7-1.6c2.9-1.1,4.5-2.9,5.1-5.3c0.6-2.9,0-4.9-1.8-6c-1.8-1.1-4.6-1.7-8.5-1.7
		c-4.4,0-7.7,1.1-10,3.2c-1.6,1.6-2.9,3.8-4,6.5h-17.9c1.7-6.2,4.5-11.3,8.4-15.3c6.2-6.2,15.3-9.4,27.2-9.4
		c7.7,0,14.3,1.5,19.7,4.6c5.4,3.1,7.1,8.9,5.3,17.4l-6.9,32.5c-0.5,2.3-1,5-1.6,8.2c-0.4,2.4-0.4,4.1,0,4.9
		c0.4,0.9,1.2,1.6,2.2,2.1l-0.5,2.7h-20.1c-0.3-1.4-0.4-2.8-0.3-4c0-1.3,0.2-2.7,0.4-4.3c-3.2,2.8-6.6,5.1-10.3,7.1
		c-4.5,2.3-9.3,3.4-14.3,3.4c-6.4,0-11.3-1.8-14.7-5.5c-3.4-3.7-4.4-8.8-3-15.6c1.9-8.7,6.6-15,14.1-18.9c4.1-2.1,9.8-3.6,17.2-4.5
		L428.7,52.7z M429,64.4l-4.3,0.8c-4.1,0.7-7.1,1.5-9,2.5c-3.2,1.7-5.2,4.3-5.9,7.9c-0.7,3.2-0.3,5.4,1.1,6.9
		c1.5,1.4,3.4,2.1,5.9,2.1c4,0,7.9-1.2,11.8-3.5s6.5-6.6,8-12.8l1.4-6.9c-1.3,0.7-2.6,1.3-3.9,1.8C432.9,63.5,431.2,64,429,64.4z"/>
</g>
</svg>
