<?xml version="1.0" encoding="UTF-8"?><svg id="a" xmlns="http://www.w3.org/2000/svg" viewBox="0 0 364.1 537.9"><path d="M202,432.3c0,38-8.8,65.1-26.5,81.3-17.7,16.2-44.7,24.3-81,24.3-19,0-34.6-2.6-46.8-7.7-12.2-5.2-21.8-12.5-29-22-7.1-9.5-12-20.6-14.7-33.2-2.7-12.7-4-26-4-40v-15.5H66v11c0,19,2.1,33.1,6.3,42.2,4.2,9.2,12.8,13.7,25.8,13.7s21.6-4.6,25.7-13.8c4.2-9.2,6.2-23.3,6.2-42.3l-.9-255h72l.9,257Z" style="fill:#00ffc2;"/><path d="M279.8,70.8c-6.2-11.9-17.4-17.8-33.7-17.8-9,0-16.4,2.4-22.2,7.2s-10.4,12.7-13.8,23.5c-3.3,10.8-5.7,25-7,42.5s-2,38.9-2,64.2c0,27,.9,48.8,2.8,65.5,1.8,16.7,4.7,29.6,8.5,38.7,3.8,9.2,8.7,15.3,14.5,18.5s12.6,4.8,20.2,4.8c6.3,0,12.2-1.1,17.8-3.2,5.5-2.2,10.2-6.5,14.2-13s7.2-15.7,9.5-27.5,3.5-27.4,3.5-46.7h72c0,19.3-1.5,37.7-4.5,55-3,17.3-8.6,32.5-16.8,45.5-8.2,13-19.7,23.2-34.5,30.5s-34.1,11-57.8,11c-27,0-48.5-4.3-64.5-13s-28.2-21.2-36.8-37.5c-8.5-16.3-14-35.8-16.5-58.5-2.5-22.7-3.8-47.7-3.8-75s1.2-51.9,3.8-74.8c2.5-22.8,8-42.4,16.5-58.8,8.5-16.3,20.8-29.1,36.8-38.2C202.1,4.6,223.6,0,250.6,0s45.9,4.2,60.8,12.5c14.8,8.3,25.9,18.9,33.2,31.8,7.3,12.8,11.9,26.7,13.8,41.5,1.8,14.8,2.8,28.8,2.8,41.8h-72c-.1-26.1-3.2-45-9.4-56.8Z" style="fill:#0090d4;"/></svg>